<!-- Created with Inkscape (http://www.inkscape.org/) -->
<svg xmlns:rdf="http://www.w3.org/1999/02/22-rdf-syntax-ns#" xmlns="http://www.w3.org/2000/svg" xmlns:osb="http://www.openswatchbook.org/uri/2009/osb" height="512" width="512" version="1.1" xmlns:cc="http://creativecommons.org/ns#" xmlns:xlink="http://www.w3.org/1999/xlink" xmlns:dc="http://purl.org/dc/elements/1.1/">
<defs>
<linearGradient id="linearGradient5954" osb:paint="solid">
<stop stop-color="#373742" offset="0"/>
</linearGradient>
<clipPath id="clipPath5940" clipPathUnits="userSpaceOnUse">
<path d="m-38.8-91c-10.8,0-5.76,2.66-3.86,4.46,1.27,1.2,1.65,8.46,1.12,45.7-7.11,50.5-65.8,137-72.3,162-6.73,20.9,0.954,32,19.1,32,3.63,0,48.5,0.834,80.7,0.876,0.824,0.001,1.73,0,2.53,0,32.3-0.0414,77.1-0.876,80.7-0.876,18.1,0,25.8-11,19.1-32-6.3-25-64.9-111-72.1-162-0.529-37.2-0.159-44.5,1.12-45.7,1.9-1.8,6.9-4.46-3.88-4.46-17.7-0.694-35.6-0.289-52,0z" fill-opacity="0.12851407" stroke="url(#linearGradient5944)" fill="#000"/>
</clipPath>
<linearGradient id="linearGradient5944" y2="30.9" gradientUnits="userSpaceOnUse" x2="90.8" y1="30.9" x1="-116">
<stop stop-color="#4e4d5e" offset="0"/>
</linearGradient>
<linearGradient id="linearGradient6590" y2="-115" xlink:href="#linearGradient5954" gradientUnits="userSpaceOnUse" x2="-106" y1="-115" x1="-316"/>
</defs>
<metadata>
<rdf:RDF>
<cc:Work rdf:about="">
<dc:format>image/svg+xml</dc:format>
<dc:type rdf:resource="http://purl.org/dc/dcmitype/StillImage"/>
<dc:title/>
</cc:Work>
</rdf:RDF>
</metadata>
<g transform="translate(0,-540.36218)">
<rect clip-path="url(#clipPath5940)" transform="matrix(1.6340861,0,0,1.5884932,291.95394,784.84361)" height="111" width="332" y="51.8" x="-180" fill="#349cff"/>
<g transform="matrix(1.6327771,0,0,1.6557004,616.08303,1017.6498)" stroke="url(#linearGradient6590)" stroke-dasharray="none" stroke-miterlimit="4" stroke-width="8.19250679" fill="none">
<path d="m-237-238c-10.8,0-5.76,2.66-3.86,4.46,1.27,1.2,1.65,8.46,1.12,45.7-7.11,50.5-65.8,137-72.3,162-6.73,20.9,0.954,32,19.1,32,3.63,0,48.5,0.834,80.7,0.876,0.824,0.001,1.73,0,2.53,0,32.3-0.0414,77.1-0.876,80.7-0.876,18.1,0,25.8-11,19.1-32-6.55-25.1-65.2-111-72.3-162-0.529-37.2-0.159-44.5,1.12-45.7,1.9-1.8,6.9-4.46-3.88-4.46-17.7-0.694-35.6-0.289-52,0z" stroke="url(#linearGradient6590)" stroke-dasharray="none" stroke-miterlimit="4" stroke-width="8.19250679" fill="none"/>
</g>
<rect height="11.9" width="64.3" y="960" x="365" fill="#373742"/>
<rect height="11.9" width="64.3" y="909" x="344" fill="#373742"/>
<rect height="11.9" width="64.3" y="849" x="307" fill="#373742"/>
<rect height="11.9" width="64.3" y="784" x="276" fill="#373742"/>
<path d="m308,548c-14.9,0-27,10.7-27,23.9s12.1,23.8,27,23.8,27-10.7,27-23.8c0-13.2-12.1-23.9-27-23.9z" stroke="#373742" stroke-miterlimit="4" stroke-dasharray="none" stroke-width="2.44908094" fill="#349cff"/>
<path d="m-7.81,156a33.4,29.5,0,1,1,-66.8,0,33.4,29.5,0,1,1,66.8,0z" transform="matrix(0.55918553,0,0,0.55918553,265.3512,754.12327)" stroke="#373742" stroke-miterlimit="4" stroke-dasharray="none" stroke-width="5.74434757" fill="#349cff"/>
<path d="m-7.81,156a33.4,29.5,0,1,1,-66.8,0,33.4,29.5,0,1,1,66.8,0z" transform="matrix(0.64946841,0,0,0.64946841,313.76664,638.98002)" stroke="#373742" stroke-miterlimit="4" stroke-dasharray="none" stroke-width="4.47882843" fill="#349cff"/>
<path d="m-7.81,156a33.4,29.5,0,1,1,-66.8,0,33.4,29.5,0,1,1,66.8,0z" transform="matrix(0.6673299,0,0,0.6673299,292.87082,559.21709)" stroke="#373742" stroke-miterlimit="4" stroke-dasharray="none" stroke-width="3.93676758" fill="#349cff"/>
</g>
</svg>
