<svg xmlns="http://www.w3.org/2000/svg" version="1.1" viewBox="0 0 48 48">
<g transform="matrix(0.09375,0,0,0.09375,-6.9374394e-7,-50.658956)">
<g fill-rule="nonzero" fill="#000" transform="matrix(1.6521034,0,0,1.6060078,250.28797,792.3739)">
<path opacity="0.98000004" d="m256,116c-35.83,0-71.66,13.66-99,41-54.67,54.67-54.67,143.3,0,198,54.67,54.67,143.3,54.67,198,0,54.67-54.67,54.67-143.3,0-198-27.34-27.34-63.17-41-99-41zm0,80c15.36,0,30.72,5.847,42.44,17.56,23.43,23.43,23.43,61.44,0,84.88-23.43,23.43-61.44,23.43-84.88,0-23.43-23.43-23.43-61.44,0-84.88,11.8-11.8,27.1-17.6,42.5-17.6z" transform="matrix(0.60528899,0,0,0.62266198,-151.49655,-156.91812)" stroke-miterlimit="4" stroke-width="0"/>
<g transform="matrix(0.70710678,-0.72740214,0.68737768,0.70710678,-0.69434134,3.2422957)">
<path opacity="0.98000004" d="m-9.254-119.6,25.42,0,8.328,17.74,4.383,27.1-50.84,0,4.383-27.1z"/>
<path opacity="0.98000004" d="m16.17,124.5-25.42,0-8.328-17.74-4.383-27.1,50.84-0.000008-4.383,27.1z" stroke-miterlimit="4" stroke-width="0"/>
<path opacity="0.98000004" d="m122.1-10.59,0,26.15-17.24,8.567-26.34,4.509-0.00001-52.3,26.34,4.509z" stroke-miterlimit="4" stroke-width="0"/>
<path opacity="0.98000004" d="m-115.2,15.56,0-26.15,17.24-8.567,26.34-4.509,0.000003,52.3-26.34-4.509z" stroke-miterlimit="4" stroke-width="0"/>
</g>
<g transform="matrix(0.70710678,-0.72740214,0.68737768,0.70710678,-0.69434444,3.2422976)">
<path opacity="0.98000004" d="m-9.254-119.6,25.42,0,8.328,17.74,4.383,27.1-50.84,0,4.383-27.1z"/>
<path opacity="0.98000004" d="m16.17,124.5-25.42,0-8.328-17.74-4.383-27.1,50.84-0.000008-4.383,27.1z" stroke-miterlimit="4" stroke-width="0"/>
<path opacity="0.98000004" d="m122.1-10.59,0,26.15-17.24,8.567-26.34,4.509-0.00001-52.3,26.34,4.509z" stroke-miterlimit="4" stroke-width="0"/>
<path opacity="0.98000004" d="m-115.2,15.56,0-26.15,17.24-8.567,26.34-4.509,0.000003,52.3-26.34-4.509z" stroke-miterlimit="4" stroke-width="0"/>
</g>
<g transform="matrix(0,-1.028702,0.97209884,0,1.0433717,6.0400334)">
<path opacity="0.98000004" d="m-9.254-119.6,25.42,0,8.328,17.74,4.383,27.1-50.84,0,4.383-27.1z"/>
<path opacity="0.98000004" d="m16.17,124.5-25.42,0-8.328-17.74-4.383-27.1,50.84-0.000008-4.383,27.1z" stroke-miterlimit="4" stroke-width="0"/>
<path opacity="0.98000004" d="m122.1-10.59,0,26.15-17.24,8.567-26.34,4.509-0.00001-52.3,26.34,4.509z" stroke-miterlimit="4" stroke-width="0"/>
<path opacity="0.98000004" d="m-115.2,15.56,0-26.15,17.24-8.567,26.34-4.509,0.000003,52.3-26.34-4.509z" stroke-miterlimit="4" stroke-width="0"/>
</g>
</g>
</g>
</svg>
