<?xml version="1.0" encoding="UTF-8" standalone="no"?>
<!-- Created with Inkscape (http://www.inkscape.org/) -->
<svg xmlns:rdf="http://www.w3.org/1999/02/22-rdf-syntax-ns#" xmlns="http://www.w3.org/2000/svg" xmlns:osb="http://www.openswatchbook.org/uri/2009/osb" height="512" width="512" version="1.1" xmlns:cc="http://creativecommons.org/ns#" xmlns:xlink="http://www.w3.org/1999/xlink" xmlns:dc="http://purl.org/dc/elements/1.1/">
<defs></defs>
<metadata>
<rdf:RDF>
<cc:Work rdf:about="">
<dc:format>image/svg+xml</dc:format>
<dc:type rdf:resource="http://purl.org/dc/dcmitype/StillImage"/>
<dc:title/>
</cc:Work>
</rdf:RDF>
</metadata>
<g transform="translate(0,-540.36218)">
<g fill-rule="nonzero" transform="matrix(1.6521034,0,0,1.6060078,250.28797,792.3739)" fill="#000">
<path opacity="0.98000004" d="M256,116c-35.82913,0-71.6633,13.6633-99,41-54.6734,54.6734-54.6734,143.3266,0,198,54.6734,54.67339,143.3266,54.6734,198,0,54.67339-54.6734,54.67339-143.3266,0-198-27.3367-27.3367-63.17087-41-99-41zm0,80c15.35534,0,30.72177,5.84677,42.4375,17.5625,23.43146,23.43146,23.43146,61.44354,0,84.875s-61.44355,23.43146-84.875,0c-23.43146-23.43146-23.43146-61.44354,0-84.875,11.71573-11.71573,27.08216-17.5625,42.4375-17.5625z" transform="matrix(0.60528899,0,0,0.62266198,-151.49655,-156.91812)" stroke-miterlimit="4" stroke-width="0"/>
<g transform="matrix(0.70710678,-0.72740214,0.68737768,0.70710678,-0.69434134,3.2422957)">
<path opacity="0.98000004" d="m-9.253588-119.5584,25.422149,0,8.32795,17.7356,4.38312,27.096065-50.8444,0,4.38323-27.096065z"/>
<path opacity="0.98000004" d="m16.168458,124.5251-25.4221555,0-8.3279505-17.73561-4.38312-27.096057,50.844398-0.000008-4.383232,27.096075z" stroke-miterlimit="4" stroke-width="0"/>
<path opacity="0.98000004" d="m122.09409-10.592502,0,26.151816-17.24076,8.566975-26.340056,4.508923-0.00001-52.30373,26.340076,4.509047z" stroke-miterlimit="4" stroke-width="0"/>
<path opacity="0.98000004" d="m-115.17921,15.559207,0-26.15182,17.240757-8.56698,26.340056-4.50893,0.000003,52.30374-26.340059-4.50904z" stroke-miterlimit="4" stroke-width="0"/>
</g>
<g transform="matrix(0.70710678,-0.72740214,0.68737768,0.70710678,-0.69434444,3.2422976)">
<path opacity="0.98000004" d="m-9.253588-119.5584,25.422149,0,8.32795,17.7356,4.38312,27.096065-50.8444,0,4.38323-27.096065z"/>
<path opacity="0.98000004" d="m16.168458,124.5251-25.4221555,0-8.3279505-17.73561-4.38312-27.096057,50.844398-0.000008-4.383232,27.096075z" stroke-miterlimit="4" stroke-width="0"/>
<path opacity="0.98000004" d="m122.09409-10.592502,0,26.151816-17.24076,8.566975-26.340056,4.508923-0.00001-52.30373,26.340076,4.509047z" stroke-miterlimit="4" stroke-width="0"/>
<path opacity="0.98000004" d="m-115.17921,15.559207,0-26.15182,17.240757-8.56698,26.340056-4.50893,0.000003,52.30374-26.340059-4.50904z" stroke-miterlimit="4" stroke-width="0"/>
</g>
<g transform="matrix(0,-1.028702,0.97209884,0,1.0433717,6.0400334)">
<path opacity="0.98000004" d="m-9.253588-119.5584,25.422149,0,8.32795,17.7356,4.38312,27.096065-50.8444,0,4.38323-27.096065z"/>
<path opacity="0.98000004" d="m16.168458,124.5251-25.4221555,0-8.3279505-17.73561-4.38312-27.096057,50.844398-0.000008-4.383232,27.096075z" stroke-miterlimit="4" stroke-width="0"/>
<path opacity="0.98000004" d="m122.09409-10.592502,0,26.151816-17.24076,8.566975-26.340056,4.508923-0.00001-52.30373,26.340076,4.509047z" stroke-miterlimit="4" stroke-width="0"/>
<path opacity="0.98000004" d="m-115.17921,15.559207,0-26.15182,17.240757-8.56698,26.340056-4.50893,0.000003,52.30374-26.340059-4.50904z" stroke-miterlimit="4" stroke-width="0"/>
</g>
</g>
</g>
</svg>
