<svg
   xmlns="http://www.w3.org/2000/svg"
   xmlns:xlink="http://www.w3.org/1999/xlink"
   width="48"
   height="48"
   version="1.1">
  <defs
     id="defs4">
    <clipPath
       id="clipPath6">
      <path
         d="m 55.8,12 0.76,0.16 c 8.84,-2.94 28.68,8.64 24.26,18.96 -1.12,1.62 -0.93,4.5 0.42,6.31 L 56.43,62.25 c -1.39,-1.39 -4.48,-1.36 -5.9,0 L 9.5,101.63 c -3.74,3.59 -0.8,6.64 0.78,8.25 l 7.36,7.36 c 1.61,1.6 5.86,3.76 8.88,0.56 L 65.24,76.99 c 1.35,-1.42 1.36,-4.47 0,-5.87 0,0 0.01,-0.02 0,-0.02 L 90.15,46.2 c 2.63,2.37 5.114,2.575 7.47,1.93 4.55,-1.245 7.09,3.207 9.81,6.46 l -1.23,1.21 c -1.82,1.84 -1.65,4.94 0.39,6.98 2.04,2.04 5.15,2.21 6.97,0.39 l 8.14,-8.13 c 1.82,-1.84 1.65,-4.94 -0.4,-6.97 -1.84,-1.85 -4.51,-2.09 -6.37,-0.77 -5.58,-6.26 -2.65,-7.2 -10.01,-15.35 L 91.13,17.86 C 81.2,8.12 68.3,8.13 55.8,12 z"
         id="outline" />
    </clipPath>
  </defs>
  <g
     id="g9"
     transform="matrix(-0.34491369,0,0,0.34491369,46.530079,1.7472694)">
    <use
       x="0"
       y="0"
       width="128"
       height="128"
       xlink:href="#outline"
       style="fill:none;stroke:#c0c0c0;stroke-width:8;stroke-linejoin:round"
       id="use11" />
    <use
       x="0"
       y="0"
       width="128"
       height="128"
       xlink:href="#outline"
       style="fill:#000000;stroke:#000000;stroke-width:0"
       id="use13" />
  </g>
</svg>
