<?xml version="1.0" encoding="UTF-8" standalone="no"?>
<!-- Created with Inkscape (http://www.inkscape.org/) -->
<svg xmlns:rdf="http://www.w3.org/1999/02/22-rdf-syntax-ns#" xmlns="http://www.w3.org/2000/svg" xmlns:osb="http://www.openswatchbook.org/uri/2009/osb" height="512" width="512" version="1.1" xmlns:cc="http://creativecommons.org/ns#" xmlns:xlink="http://www.w3.org/1999/xlink" xmlns:dc="http://purl.org/dc/elements/1.1/">
<defs>
<linearGradient id="linearGradient8837" y2="949.50977" gradientUnits="userSpaceOnUse" x2="76.37825" gradientTransform="matrix(18.440913,-0.20166702,0.23059393,19.640549,-1455.4542,-17958.066)" y1="959.599" x1="70.947891">
<stop stop-color="#000" offset="0"/>
<stop stop-color="#000" stop-opacity="0.40784314" offset="1"/>
</linearGradient>
<linearGradient id="linearGradient8839" y2="949.50977" gradientUnits="userSpaceOnUse" x2="76.37825" gradientTransform="matrix(18.440913,-0.20166702,0.23059393,19.640549,-1250.7394,-17928.153)" y1="959.599" x1="70.947891">
<stop stop-color="#000" offset="0"/>
<stop stop-color="#000" stop-opacity="0.40784314" offset="1"/>
</linearGradient>
</defs>
<metadata>
<rdf:RDF>
<cc:Work rdf:about="">
<dc:format>image/svg+xml</dc:format>
<dc:type rdf:resource="http://purl.org/dc/dcmitype/StillImage"/>
<dc:title/>
</cc:Work>
</rdf:RDF>
</metadata>
<g transform="translate(0,-540.36218)">
<g transform="matrix(1.072108,0,0,0.9239369,-14.818829,35.516022)">
<path d="m177.6149,811.71416c-4.12267,36.70428-46.11921,54.51785-91.248403,48.66247-45.129176-5.85604-76.301553-33.16392-72.178811-69.86776,4.122724-36.70341,39.42819-46.70222,89.559964-38.29229,58.33021,9.78501,77.99002,22.79417,73.86725,59.49758z" fill-rule="nonzero" fill="url(#linearGradient8837)"/>
<path stroke-linejoin="miter" d="m177.04,807.22656c31.31157-14.62251,42.59953,8.76941,42.59953,8.76941" stroke="#000" stroke-linecap="round" stroke-miterlimit="4" stroke-dasharray="none" stroke-width="8.61544228" fill="none"/>
<path d="m382.32972,841.62724c-4.12269,36.70428-46.11921,54.51785-91.2484,48.66225-45.12918-5.85582-76.30155-33.1637-72.17883-69.86754,4.12274-36.70363,39.42821-46.70244,89.55999-38.29229,58.3302,9.78501,77.99001,22.79417,73.86724,59.49758z" fill-rule="nonzero" fill="url(#linearGradient8839)"/>
<g transform="matrix(0.99948274,-0.03215988,0.03215988,0.99948274,-25.928541,12.998012)">
<path stroke-linejoin="miter" d="m381.68026,832.73959c71.40419-68.93154,95.60656-80.70113,95.60656-80.70113" stroke="#000" stroke-linecap="round" stroke-miterlimit="4" stroke-dasharray="none" stroke-width="8.19674969" fill="none"/>
<path d="m490.91983,749.25346c2.95783,4.88371,3.8706,10.03579-1.92613,12.95856-2.99144,1.50528-13.05371-5.38254-23.69314,0.62291-15.21009,8.58421-8.25528,1.62058-1.29254-2.10232,5.48337-2.93579,1.29629-5.236,10.30422-11.69915,8.13904-4.18765,11.06953-4.84799,16.60749,0.2255z" fill-rule="nonzero" fill="#000"/>
</g>
<g transform="matrix(0.99130092,0.13161489,-0.13161489,0.99130092,104.38827,-2.4586543)">
<path stroke-linejoin="miter" d="M19.391342,790.58153c90.984888-87.83417,121.824108-102.83126,121.824108-102.83126" stroke="#000" stroke-linecap="round" stroke-miterlimit="4" stroke-dasharray="none" stroke-width="7.34399986" fill="none"/>
<path d="m154.96931,685.80124c3.12513,5.15995,4.08953,10.60345-2.03507,13.69153-3.16065,1.59042-13.79207-5.68699-25.03329,0.65815-16.07042,9.06975-8.72222,1.71224-1.36565-2.22124,5.79353-3.10184,1.36961-5.53216,10.88706-12.36088,8.5994-4.42452,11.69564-5.12221,17.54684,0.23826z" fill-rule="nonzero" fill="#000"/>
</g>
</g>
</g>
</svg>
