<svg xmlns="http://www.w3.org/2000/svg" version="1.1" viewBox="0 0 48 48">
<defs>
<linearGradient id="linearGradient8837" x1="70.95" gradientUnits="userSpaceOnUse" y1="959.6" gradientTransform="matrix(18.440913,-0.20166702,0.23059393,19.640549,-1455.4542,-17958.066)" x2="76.38" y2="949.5">
<stop stop-color="#000" offset="0"/>
<stop stop-color="#000" stop-opacity="0.40784314" offset="1"/>
</linearGradient>
<linearGradient id="linearGradient8839" x1="70.95" gradientUnits="userSpaceOnUse" y1="959.6" gradientTransform="matrix(18.440913,-0.20166702,0.23059393,19.640549,-1250.7394,-17928.153)" x2="76.38" y2="949.5">
<stop stop-color="#000" offset="0"/>
<stop stop-color="#000" stop-opacity="0.40784314" offset="1"/>
</linearGradient>
</defs>
<g transform="matrix(0.09375,0,0,0.09375,8.0543111e-7,-47.946546)">
<g transform="matrix(1.072108,0,0,0.9239369,-14.818829,35.516022)">
<path fill-rule="nonzero" fill="url(#linearGradient8837)" d="m177.6,811.7c-4.123,36.7-46.12,54.52-91.25,48.66-45.13-5.856-76.3-33.16-72.18-69.87,4.123-36.7,39.43-46.7,89.56-38.29,58.33,9.785,77.99,22.79,73.87,59.5z"/>
<path stroke-linejoin="miter" d="m177,807.2c31.31-14.62,42.6,8.769,42.6,8.769" stroke="#000" stroke-linecap="round" stroke-miterlimit="4" stroke-dasharray="none" stroke-width="8.61544228" fill="none"/>
<path fill-rule="nonzero" fill="url(#linearGradient8839)" d="m382.3,841.6c-4.123,36.7-46.12,54.52-91.25,48.66-45.13-5.856-76.3-33.16-72.18-69.87,4.123-36.7,39.43-46.7,89.56-38.29,58.33,9.785,77.99,22.79,73.87,59.5z"/>
<g transform="matrix(0.99948274,-0.03215988,0.03215988,0.99948274,-25.928541,12.998012)">
<path stroke-linejoin="miter" d="m381.7,832.7c71.4-68.93,95.61-80.7,95.61-80.7" stroke="#000" stroke-linecap="round" stroke-miterlimit="4" stroke-dasharray="none" stroke-width="8.19674969" fill="none"/>
<path fill-rule="nonzero" fill="#000" d="m490.9,749.3c2.958,4.884,3.871,10.04-1.926,12.96-2.991,1.505-13.05-5.383-23.69,0.6229-15.21,8.584-8.255,1.621-1.293-2.102,5.483-2.936,1.296-5.236,10.3-11.7,8.139-4.188,11.07-4.848,16.61,0.2255z"/>
</g>
<g transform="matrix(0.99130092,0.13161489,-0.13161489,0.99130092,104.38827,-2.4586543)">
<path stroke-linejoin="miter" d="M19.39,790.6c91.01-87.9,121.8-102.8,121.8-102.8" stroke="#000" stroke-linecap="round" stroke-miterlimit="4" stroke-dasharray="none" stroke-width="7.34399986" fill="none"/>
<path fill-rule="nonzero" fill="#000" d="m155,685.8c3.125,5.16,4.09,10.6-2.035,13.69-3.161,1.59-13.79-5.687-25.03,0.6582-16.07,9.07-8.722,1.712-1.366-2.221,5.794-3.102,1.37-5.532,10.89-12.36,8.599-4.425,11.7-5.122,17.55,0.2383z"/>
</g>
</g>
</g>
</svg>
